<svg xmlns="http://www.w3.org/2000/svg" viewBox="0 0 512 512" role="img" aria-labelledby="title desc">
  <title id="title">Smart Drop logo mark</title>
  <desc id="desc">Standalone Smart Drop icon mark combining a droplet, leaf, IoT signal, solar spark, and circuit paths.</desc>
  <defs>
    <linearGradient id="drop" x1="214" y1="68" x2="302" y2="392" gradientUnits="userSpaceOnUse">
      <stop stop-color="#0EA5E9"/>
      <stop offset="1" stop-color="#22C55E"/>
    </linearGradient>
    <linearGradient id="leaf" x1="244" y1="274" x2="364" y2="366" gradientUnits="userSpaceOnUse">
      <stop stop-color="#22C55E"/>
      <stop offset="1" stop-color="#16A34A"/>
    </linearGradient>
  </defs>
  <rect width="512" height="512" rx="116" fill="#FFFFFF"/>
  <path d="M256 72c-70 87-132 164-132 247 0 84 57 141 132 141s132-57 132-141c0-83-62-160-132-247z" fill="url(#drop)"/>
  <path d="M254 372c52-118 138-148 196-126-14 71-73 138-196 126z" fill="url(#leaf)"/>
  <path d="M259 368c32-51 76-82 139-103" fill="none" stroke="#FFFFFF" stroke-width="18" stroke-linecap="round"/>
  <path d="M185 232a92 92 0 0 1 142 0" fill="none" stroke="#FFFFFF" stroke-width="22" stroke-linecap="round" opacity=".92"/>
  <path d="M216 266a52 52 0 0 1 80 0" fill="none" stroke="#FFFFFF" stroke-width="18" stroke-linecap="round" opacity=".92"/>
  <circle cx="256" cy="300" r="14" fill="#FFFFFF"/>
  <path d="M334 104h64m-32-32v64" stroke="#FACC15" stroke-width="18" stroke-linecap="round"/>
  <path d="M80 400h86m0 0v-52m0 52h58" fill="none" stroke="#16A34A" stroke-width="18" stroke-linecap="round" stroke-linejoin="round"/>
  <circle cx="80" cy="400" r="14" fill="#16A34A"/>
  <circle cx="224" cy="400" r="14" fill="#16A34A"/>
</svg>
