<svg xmlns="http://www.w3.org/2000/svg" viewBox="0 0 1200 360" role="img" aria-labelledby="title desc">
  <title id="title">Smart Drop monochrome logo</title>
  <desc id="desc">A single-color Smart Drop logo suitable for stamps, print, and dark or light surfaces.</desc>
  <rect width="1200" height="360" fill="none"/>
  <g fill="#111827" stroke="#111827">
    <circle cx="180" cy="180" r="126" fill="none" stroke-width="16"/>
    <path d="M180 68c-44 55-82 101-82 153 0 54 36 91 82 91s82-37 82-91c0-52-38-98-82-153z" fill="#111827" stroke="none"/>
    <path d="M178 246c33-74 86-92 122-78-8 44-45 86-122 78z" fill="#FFFFFF" stroke="none"/>
    <path d="M181 244c20-32 47-51 86-64" fill="none" stroke="#111827" stroke-width="10" stroke-linecap="round"/>
    <path d="M135 166a56 56 0 0 1 90 0" fill="none" stroke="#FFFFFF" stroke-width="12" stroke-linecap="round"/>
    <path d="M154 187a31 31 0 0 1 52 0" fill="none" stroke="#FFFFFF" stroke-width="10" stroke-linecap="round"/>
    <circle cx="180" cy="209" r="8" fill="#FFFFFF" stroke="none"/>
    <path d="M83 256h54m0 0v-30m0 30h36" fill="none" stroke-width="10" stroke-linecap="round" stroke-linejoin="round"/>
    <circle cx="83" cy="256" r="8" stroke="none"/>
    <circle cx="173" cy="256" r="8" stroke="none"/>
  </g>
  <text x="364" y="178" fill="#111827" font-family="Inter, SF Pro Display, Segoe UI, Arial, sans-serif" font-size="86" font-weight="800" letter-spacing="0">Smart Drop</text>
  <text x="368" y="230" fill="#111827" font-family="Inter, SF Pro Text, Segoe UI, Arial, sans-serif" font-size="28" font-weight="600" letter-spacing="2">SOLAR IRRIGATION MONITORING</text>
  <path d="M368 260h524" stroke="#111827" stroke-width="8" stroke-linecap="round"/>
</svg>
