<svg xmlns="http://www.w3.org/2000/svg" viewBox="0 0 64 64" role="img" aria-label="Smart Drop favicon">
  <defs>
    <linearGradient id="d" x1="26" y1="7" x2="38" y2="56" gradientUnits="userSpaceOnUse">
      <stop stop-color="#0EA5E9"/>
      <stop offset="1" stop-color="#22C55E"/>
    </linearGradient>
  </defs>
  <rect width="64" height="64" rx="16" fill="#FFFFFF"/>
  <path d="M32 8C23 19 15 29 15 40c0 10 7 17 17 17s17-7 17-17c0-11-8-21-17-32z" fill="url(#d)"/>
  <path d="M32 47c7-14 17-18 25-15-2 9-10 17-25 15z" fill="#16A34A"/>
  <path d="M24 30a11 11 0 0 1 16 0M28 35a6 6 0 0 1 8 0" fill="none" stroke="#FFFFFF" stroke-width="3.5" stroke-linecap="round"/>
  <circle cx="32" cy="39" r="2.5" fill="#FFFFFF"/>
  <path d="M42 13h10m-5-5v10" stroke="#FACC15" stroke-width="3.5" stroke-linecap="round"/>
</svg>
