<svg xmlns="http://www.w3.org/2000/svg" viewBox="0 0 680 500" role="img" aria-label="TrustPay payment platform preview">
  <rect width="680" height="500" rx="34" fill="#F0FDF4"/>
  <rect x="106" y="66" width="230" height="368" rx="34" fill="#111827"/>
  <rect x="132" y="104" width="178" height="280" rx="24" fill="#FFFFFF"/>
  <rect x="164" y="136" width="42" height="42" rx="8" fill="#111827"/>
  <rect x="222" y="136" width="42" height="42" rx="8" fill="#111827"/>
  <rect x="164" y="194" width="42" height="42" rx="8" fill="#111827"/>
  <rect x="238" y="210" width="26" height="26" rx="6" fill="#22C55E"/>
  <rect x="164" y="252" width="100" height="42" rx="8" fill="#111827"/>
  <rect x="164" y="328" width="114" height="12" rx="6" fill="#10B981"/>
  <rect x="384" y="126" width="190" height="92" rx="24" fill="#FFFFFF"/>
  <rect x="416" y="160" width="92" height="14" rx="7" fill="#111827"/>
  <rect x="384" y="250" width="190" height="92" rx="24" fill="#FFFFFF"/>
  <rect x="416" y="284" width="122" height="14" rx="7" fill="#111827"/>
  <circle cx="548" cy="296" r="18" fill="#22C55E"/>
</svg>
