<svg xmlns="http://www.w3.org/2000/svg" viewBox="0 0 1160 320" role="img" aria-labelledby="title desc">
  <title id="title">TrustPay brand logo</title>
  <desc id="desc">A premium fintech logo for TrustPay with a shield, QR code, and secure payment checkmark.</desc>
  <defs>
    <linearGradient id="shieldGradient" x1="92" y1="58" x2="244" y2="264" gradientUnits="userSpaceOnUse">
      <stop stop-color="#2563EB"/>
      <stop offset="1" stop-color="#1E3A8A"/>
    </linearGradient>
    <filter id="shadow" x="-30%" y="-30%" width="160%" height="160%">
      <feDropShadow dx="0" dy="16" stdDeviation="18" flood-color="#111827" flood-opacity=".12"/>
    </filter>
  </defs>
  <rect width="1160" height="320" fill="none"/>
  <g filter="url(#shadow)">
    <circle cx="160" cy="160" r="116" fill="#FFFFFF"/>
    <path d="M160 58l86 34v72c0 64-36 105-86 130-50-25-86-66-86-130V92l86-34z" fill="url(#shieldGradient)"/>
    <rect x="118" y="112" width="28" height="28" rx="6" fill="#FFFFFF"/>
    <rect x="174" y="112" width="28" height="28" rx="6" fill="#FFFFFF"/>
    <rect x="118" y="168" width="28" height="28" rx="6" fill="#FFFFFF"/>
    <rect x="174" y="168" width="16" height="16" rx="4" fill="#FFFFFF"/>
    <rect x="196" y="190" width="18" height="18" rx="4" fill="#FFFFFF"/>
    <path d="M126 230l31 30 61-76" fill="none" stroke="#10B981" stroke-width="18" stroke-linecap="round" stroke-linejoin="round"/>
  </g>
  <text x="340" y="166" fill="#111827" font-family="Inter, SF Pro Display, Segoe UI, Arial, sans-serif" font-size="90" font-weight="820" letter-spacing="0">Trust</text>
  <text x="562" y="166" fill="#2563EB" font-family="Inter, SF Pro Display, Segoe UI, Arial, sans-serif" font-size="90" font-weight="820" letter-spacing="0">Pay</text>
  <text x="346" y="218" fill="#64748B" font-family="Inter, SF Pro Text, Segoe UI, Arial, sans-serif" font-size="27" font-weight="650" letter-spacing="2">SECURE QR PAYMENTS</text>
  <path d="M346 248h280m34 0h56m34 0h114" stroke="#2563EB" stroke-width="8" stroke-linecap="round"/>
  <circle cx="644" cy="248" r="8" fill="#10B981"/>
  <circle cx="734" cy="248" r="8" fill="#10B981"/>
</svg>
