<svg xmlns="http://www.w3.org/2000/svg" viewBox="0 0 900 720" role="img" aria-labelledby="title desc">
  <title id="title">Developer illustration</title>
  <desc id="desc">A premium illustration of a developer desk with laptop, IoT device, and analytics panels.</desc>
  <defs>
    <linearGradient id="g1" x1="120" y1="50" x2="760" y2="680" gradientUnits="userSpaceOnUse">
      <stop stop-color="#FFFFFF"/>
      <stop offset="1" stop-color="#ECFDF5"/>
    </linearGradient>
    <linearGradient id="g2" x1="320" y1="230" x2="640" y2="540" gradientUnits="userSpaceOnUse">
      <stop stop-color="#22C55E"/>
      <stop offset="1" stop-color="#10B981"/>
    </linearGradient>
    <filter id="shadow" x="-20%" y="-20%" width="140%" height="140%">
      <feDropShadow dx="0" dy="24" stdDeviation="28" flood-color="#111827" flood-opacity=".16"/>
    </filter>
  </defs>
  <rect x="30" y="30" width="840" height="660" rx="52" fill="url(#g1)"/>
  <circle cx="740" cy="140" r="74" fill="#22C55E" opacity=".14"/>
  <circle cx="164" cy="548" r="92" fill="#10B981" opacity=".12"/>
  <path d="M154 130c78-76 177-82 298-18 93 49 179 40 267 12 86-27 128 39 105 122-22 80-91 105-98 199-7 91-70 167-176 171-99 3-136-61-226-56-91 4-175 22-220-52-46-75-8-154 37-217 44-61-49-101 13-161z" fill="#FFFFFF" opacity=".9"/>
  <g filter="url(#shadow)">
    <rect x="188" y="128" width="222" height="166" rx="28" fill="#FFFFFF"/>
    <rect x="216" y="162" width="134" height="14" rx="7" fill="#111827" opacity=".82"/>
    <rect x="216" y="196" width="160" height="12" rx="6" fill="#D1FAE5"/>
    <rect x="216" y="226" width="70" height="38" rx="12" fill="#22C55E" opacity=".18"/>
    <rect x="300" y="226" width="76" height="38" rx="12" fill="#10B981" opacity=".16"/>
  </g>
  <g filter="url(#shadow)">
    <rect x="570" y="142" width="164" height="228" rx="30" fill="#FFFFFF"/>
    <path d="M604 310c15-54 36-78 62-73 28 5 37 35 43 83" fill="none" stroke="#22C55E" stroke-width="12" stroke-linecap="round"/>
    <rect x="604" y="188" width="68" height="12" rx="6" fill="#111827" opacity=".82"/>
    <rect x="604" y="218" width="92" height="10" rx="5" fill="#D1FAE5"/>
  </g>
  <g filter="url(#shadow)">
    <path d="M258 525h386l-42-190H306z" fill="#111827"/>
    <path d="M314 354h276l28 143H285z" fill="#1F2937"/>
    <rect x="337" y="384" width="102" height="12" rx="6" fill="#FFFFFF" opacity=".86"/>
    <rect x="337" y="416" width="198" height="12" rx="6" fill="#22C55E" opacity=".8"/>
    <rect x="337" y="448" width="148" height="12" rx="6" fill="#FFFFFF" opacity=".34"/>
    <circle cx="554" cy="427" r="38" fill="url(#g2)"/>
    <path d="M382 525h138l18 56H360z" fill="#D1D5DB"/>
    <rect x="316" y="580" width="266" height="22" rx="11" fill="#9CA3AF"/>
  </g>
  <g filter="url(#shadow)">
    <rect x="600" y="466" width="118" height="96" rx="24" fill="#FFFFFF"/>
    <circle cx="638" cy="514" r="20" fill="#22C55E" opacity=".2"/>
    <circle cx="638" cy="514" r="8" fill="#22C55E"/>
    <path d="M668 492h24M668 514h30M668 536h18" stroke="#111827" stroke-width="8" stroke-linecap="round" opacity=".72"/>
  </g>
  <path d="M190 627h520" stroke="#111827" stroke-width="18" stroke-linecap="round" opacity=".09"/>
</svg>
