<svg xmlns="http://www.w3.org/2000/svg" viewBox="0 0 64 64" role="img" aria-label="Smart Drop favicon">
  <defs>
    <linearGradient id="dropGradient" x1="22" y1="6" x2="42" y2="58" gradientUnits="userSpaceOnUse">
      <stop stop-color="#0EA5E9"/>
      <stop offset=".56" stop-color="#22C55E"/>
      <stop offset="1" stop-color="#15803D"/>
    </linearGradient>
  </defs>
  <rect width="64" height="64" rx="16" fill="#FFFFFF"/>
  <path d="M32 7C22 20 13 31 13 44c0 12 8 20 19 20s19-8 19-20c0-13-9-24-19-37z" fill="url(#dropGradient)"/>
  <path d="M18 42c9-13 18-20 32-23" fill="none" stroke="#FFFFFF" stroke-width="4" stroke-linecap="round"/>
  <path d="M22 37c10-2 20 0 29 5-8 9-19 14-33 12 0-7 1-12 4-17z" fill="#15803D"/>
  <path d="M20 28a14 14 0 0 1 24 0M24 32a9 9 0 0 1 16 0" fill="none" stroke="#FFFFFF" stroke-width="2.8" stroke-linecap="round"/>
  <circle cx="32" cy="36" r="2" fill="#FFFFFF"/>
  <path d="M47 12h10m-5-5v10" stroke="#FACC15" stroke-width="3" stroke-linecap="round"/>
</svg>
