<svg xmlns="http://www.w3.org/2000/svg" viewBox="0 0 720 820" role="img" aria-labelledby="title desc">
  <title id="title">Smart Drop stacked logo</title>
  <desc id="desc">Stacked Smart Drop logo with premium icon and centered wordmark.</desc>
  <defs>
    <linearGradient id="dropGradient" x1="250" y1="98" x2="470" y2="486" gradientUnits="userSpaceOnUse">
      <stop stop-color="#0EA5E9"/>
      <stop offset=".56" stop-color="#22C55E"/>
      <stop offset="1" stop-color="#15803D"/>
    </linearGradient>
    <linearGradient id="sunGradient" x1="274" y1="182" x2="446" y2="270" gradientUnits="userSpaceOnUse">
      <stop stop-color="#FDE68A"/>
      <stop offset="1" stop-color="#F59E0B"/>
    </linearGradient>
  </defs>
  <rect width="720" height="820" fill="none"/>
  <g>
    <circle cx="360" cy="292" r="208" fill="#F8FAFC"/>
    <path d="M360 72C270 186 188 287 188 396c0 109 74 184 172 184s172-75 172-184c0-109-82-210-172-324z" fill="url(#dropGradient)"/>
    <path d="M234 380c80-112 160-172 288-200" fill="none" stroke="#FFFFFF" stroke-width="28" stroke-linecap="round" opacity=".94"/>
    <path d="M266 334c27-66 88-112 164-112 39 0 75 12 105 33" fill="none" stroke="url(#sunGradient)" stroke-width="27" stroke-linecap="round"/>
    <path d="M266 382c88-13 172-3 254 47-65 78-161 122-281 109 1-60 11-111 27-156z" fill="#15803D"/>
    <path d="M271 536c55-75 122-125 219-164" fill="none" stroke="#FFFFFF" stroke-width="25" stroke-linecap="round"/>
    <path d="M260 254a123 123 0 0 1 200 0" fill="none" stroke="#FFFFFF" stroke-width="21" stroke-linecap="round"/>
    <path d="M296 292a76 76 0 0 1 128 0" fill="none" stroke="#FFFFFF" stroke-width="18" stroke-linecap="round"/>
    <circle cx="360" cy="330" r="15" fill="#FFFFFF"/>
    <path d="M491 158h69m-35-35v70" stroke="#FACC15" stroke-width="18" stroke-linecap="round"/>
  </g>
  <text x="360" y="694" text-anchor="middle" fill="#111827" font-family="Inter, SF Pro Display, Manrope, Arial, sans-serif" font-size="86" font-weight="820">Smart Drop</text>
  <text x="360" y="744" text-anchor="middle" fill="#64748B" font-family="Inter, SF Pro Text, Manrope, Arial, sans-serif" font-size="24" font-weight="650" letter-spacing="2">INTELLIGENT IRRIGATION</text>
</svg>
