<svg xmlns="http://www.w3.org/2000/svg" viewBox="0 0 1320 380" role="img" aria-labelledby="title desc">
  <title id="title">Smart Drop primary horizontal logo</title>
  <desc id="desc">Premium Smart Drop logo combining water, sustainable leaf flow, solar energy, wireless IoT signal, and data intelligence.</desc>
  <defs>
    <linearGradient id="dropGradient" x1="128" y1="48" x2="292" y2="328" gradientUnits="userSpaceOnUse">
      <stop stop-color="#0EA5E9"/>
      <stop offset=".56" stop-color="#22C55E"/>
      <stop offset="1" stop-color="#15803D"/>
    </linearGradient>
    <linearGradient id="sunGradient" x1="143" y1="111" x2="252" y2="170" gradientUnits="userSpaceOnUse">
      <stop stop-color="#FDE68A"/>
      <stop offset="1" stop-color="#F59E0B"/>
    </linearGradient>
    <filter id="softShadow" x="-30%" y="-30%" width="160%" height="160%">
      <feDropShadow dx="0" dy="18" stdDeviation="22" flood-color="#111827" flood-opacity=".13"/>
    </filter>
  </defs>
  <rect width="1320" height="380" fill="none"/>
  <g filter="url(#softShadow)">
    <circle cx="190" cy="190" r="142" fill="#FFFFFF"/>
    <path d="M190 48C132 121 80 186 80 255c0 70 47 117 110 117s110-47 110-117c0-69-52-134-110-207z" fill="url(#dropGradient)"/>
    <path d="M109 245c51-72 102-110 184-128" fill="none" stroke="#FFFFFF" stroke-width="18" stroke-linecap="round" opacity=".94"/>
    <path d="M129 216c17-42 56-72 105-72 25 0 48 8 67 21" fill="none" stroke="url(#sunGradient)" stroke-width="17" stroke-linecap="round"/>
    <path d="M128 247c56-8 110-2 163 30-42 50-103 78-180 70 1-39 7-72 17-100z" fill="#15803D"/>
    <path d="M131 346c35-48 78-80 140-105" fill="none" stroke="#FFFFFF" stroke-width="16" stroke-linecap="round"/>
    <path d="M126 166a79 79 0 0 1 128 0" fill="none" stroke="#FFFFFF" stroke-width="13" stroke-linecap="round" opacity=".95"/>
    <path d="M148 190a49 49 0 0 1 84 0" fill="none" stroke="#FFFFFF" stroke-width="11" stroke-linecap="round" opacity=".95"/>
    <circle cx="190" cy="212" r="9" fill="#FFFFFF"/>
    <path d="M80 286H42m0 0v-34m0 34H20" fill="none" stroke="#15803D" stroke-width="12" stroke-linecap="round" stroke-linejoin="round"/>
    <circle cx="20" cy="286" r="9" fill="#15803D"/>
    <circle cx="80" cy="286" r="9" fill="#15803D"/>
    <path d="M273 104h44m-22-22v44" stroke="#FACC15" stroke-width="11" stroke-linecap="round"/>
  </g>
  <g>
    <text x="398" y="178" fill="#111827" font-family="Inter, SF Pro Display, Manrope, Arial, sans-serif" font-size="92" font-weight="820" letter-spacing="0">Smart</text>
    <text x="690" y="178" fill="#15803D" font-family="Inter, SF Pro Display, Manrope, Arial, sans-serif" font-size="92" font-weight="820" letter-spacing="0">Drop</text>
    <text x="404" y="232" fill="#64748B" font-family="Inter, SF Pro Text, Manrope, Arial, sans-serif" font-size="28" font-weight="650" letter-spacing="2">SOLAR-POWERED IOT IRRIGATION</text>
    <path d="M404 265h304m34 0h80m34 0h182" stroke="#22C55E" stroke-width="9" stroke-linecap="round"/>
    <circle cx="728" cy="265" r="9" fill="#0EA5E9"/>
    <circle cx="840" cy="265" r="9" fill="#0EA5E9"/>
    <text x="404" y="310" fill="#94A3B8" font-family="Inter, SF Pro Text, Manrope, Arial, sans-serif" font-size="21" font-weight="600">Intelligent water monitoring for sustainable farms</text>
  </g>
</svg>
