<svg xmlns="http://www.w3.org/2000/svg" viewBox="0 0 512 512" role="img" aria-labelledby="title desc">
  <title id="title">Smart Drop icon</title>
  <desc id="desc">Smart Drop icon only version for app, favicon, and product use.</desc>
  <defs>
    <linearGradient id="dropGradient" x1="176" y1="52" x2="336" y2="462" gradientUnits="userSpaceOnUse">
      <stop stop-color="#0EA5E9"/>
      <stop offset=".56" stop-color="#22C55E"/>
      <stop offset="1" stop-color="#15803D"/>
    </linearGradient>
    <linearGradient id="sunGradient" x1="178" y1="138" x2="330" y2="214" gradientUnits="userSpaceOnUse">
      <stop stop-color="#FDE68A"/>
      <stop offset="1" stop-color="#F59E0B"/>
    </linearGradient>
  </defs>
  <rect width="512" height="512" fill="none"/>
  <path d="M256 48C170 156 92 252 92 356c0 104 70 176 164 176s164-72 164-176c0-104-78-200-164-308z" fill="url(#dropGradient)"/>
  <path d="M136 340c76-107 153-164 275-191" fill="none" stroke="#FFFFFF" stroke-width="27" stroke-linecap="round" opacity=".94"/>
  <path d="M166 296c26-63 84-106 156-106 38 0 71 11 100 31" fill="none" stroke="url(#sunGradient)" stroke-width="25" stroke-linecap="round"/>
  <path d="M166 342c84-13 164-2 243 44-63 75-153 117-267 105 1-57 9-106 24-149z" fill="#15803D"/>
  <path d="M170 489c52-72 117-120 209-157" fill="none" stroke="#FFFFFF" stroke-width="24" stroke-linecap="round"/>
  <path d="M161 220a117 117 0 0 1 190 0" fill="none" stroke="#FFFFFF" stroke-width="20" stroke-linecap="round"/>
  <path d="M194 256a72 72 0 0 1 124 0" fill="none" stroke="#FFFFFF" stroke-width="17" stroke-linecap="round"/>
  <circle cx="256" cy="292" r="14" fill="#FFFFFF"/>
  <path d="M382 98h66m-33-33v66" stroke="#FACC15" stroke-width="17" stroke-linecap="round"/>
  <path d="M92 392H44m0 0v-43m0 43H16" fill="none" stroke="#15803D" stroke-width="17" stroke-linecap="round" stroke-linejoin="round"/>
  <circle cx="16" cy="392" r="13" fill="#15803D"/>
  <circle cx="92" cy="392" r="13" fill="#15803D"/>
</svg>
